<svg version="1.2" xmlns="http://www.w3.org/2000/svg" xmlns:xlink="http://www.w3.org/1999/xlink" overflow="visible" preserveAspectRatio="none" viewBox="0 0 87 87" xml:space="preserve" y="0px" x="0px" id="Livello_1_1582538447880" width="85" height="85"><g transform="translate(1, 1)"><style type="text/css">
	.st0_1582538447880{opacity:0.6;}
	.st1_1582538447880{font-family:'Roboto-Regular';}
	.st2_1582538447880{font-size:12px;}
	.st3_1582538447880{fill-rule:evenodd;clip-rule:evenodd;fill:#A6CE38;}
	.st4_1582538447880{fill:#1A171B;}
	.st5_1582538447880{fill:#A6CE38;}
</style><g>
	<g>
		<text class="st0_1582538447880 st1_1582538447880 st2_1582538447880" transform="matrix(1 0 0 1 42.5196 46.6447)" vector-effect="non-scaling-stroke"> </text>
	</g>
	<path d="M53.7,15.2c0,5.9-4.8,10.7-10.7,10.7c-5.9,0-10.7-4.8-10.7-10.7H53.7z" class="st3_1582538447880" vector-effect="non-scaling-stroke"/>
	<path d="M69.8,36.2l-4-4c-2.5-2.5-6.8-0.7-6.8,2.8v30.1h-0.6c-2.1,0-2.1,3.2,0,3.2h0.6v3.2H25.7V35.4   c0-3.6-4.3-5.3-6.8-2.8l-3.7,3.7l-6.4-6.5l9.9-10c3.9-3.9,9.1-6.1,14.6-6.1c20.1,0,18.8,0,20.1,0.1c-0.8,0.1-1.4,0.8-1.4,1.6   c0,5.1-4.1,9.1-9.1,9.1c-5.1,0-9.1-4.1-9.1-9.1c0-2.1-3.2-2.1-3.2,0c0,6.8,5.5,12.3,12.3,12.3s12.3-5.5,12.3-12.3   c0-0.7-0.5-1.2-1-1.5c4.6,0.6,8.9,2.6,12.1,6l9.9,10L69.8,36.2z M79.6,28.6l-11-11.2c-4.4-4.5-10.6-7-16.9-7H33.4   c-6.4,0-12.4,2.5-16.9,7L5.5,28.6c-0.7,0.7-0.7,1.6,0,2.2c9.4,9.5,8.8,9.2,9.8,9.2c0.8,0,0.8-0.1,5.9-5.2c0.6-0.6,1.4-0.2,1.4,0.6   V73c0,0.8,0.8,1.6,1.6,1.6h36.5c0.8,0,1.6-0.8,1.6-1.6c0-40.4-0.3-38.4,0.5-38.7s0.8,0.1,6,5.3c0.6,0.6,1.4,0.5,1.1,0.5   c0.9,0,0.4,0.3,9.8-9.2C80.2,30.2,80.2,29.2,79.6,28.6z" class="st4_1582538447880" vector-effect="non-scaling-stroke"/>
	<path d="M29.5,65.1h-0.7c-2.1,0-2.1,3.2,0,3.2h0.7c0.8,0,1.6-0.8,1.6-1.6C31.1,65.8,30.3,65.1,29.5,65.1z" class="st4_1582538447880" vector-effect="non-scaling-stroke"/>
	<path d="M39.9,65.1h-1.6c-2.1,0-2.1,3.2,0,3.2h1.6c0.8,0,1.6-0.8,1.6-1.6C41.5,65.8,40.7,65.1,39.9,65.1z" class="st4_1582538447880" vector-effect="non-scaling-stroke"/>
	<path d="M50.1,65.1h-1.6c-2.1,0-2.1,3.2,0,3.2h1.6C52.2,68.3,52.2,65.1,50.1,65.1z" class="st4_1582538447880" vector-effect="non-scaling-stroke"/>
	<path d="M52.2,48.9c0,0.5,0,0.9-0.1,1.4c-0.1,0.5-0.2,0.9-0.4,1.4c-0.2,0.4-0.4,0.9-0.7,1.2c-0.3,0.4-0.6,0.8-0.9,1.1   c-0.3,0.3-0.7,0.6-1.1,0.9c-0.4,0.3-0.8,0.5-1.2,0.7c-0.4,0.2-0.9,0.3-1.4,0.4c-0.5,0.1-0.9,0.1-1.4,0.1c-0.5,0-0.9,0-1.4-0.1   c-0.5-0.1-0.9-0.2-1.4-0.4s-0.9-0.4-1.2-0.7s-0.8-0.6-1.1-0.9c-0.3-0.3-0.6-0.7-0.9-1.1c-0.3-0.4-0.5-0.8-0.7-1.2   c-0.2-0.4-0.3-0.9-0.4-1.4c-0.1-0.5-0.1-0.9-0.1-1.4c0-0.5,0-0.9,0.1-1.4c0.1-0.5,0.2-0.9,0.4-1.4c0.2-0.4,0.4-0.9,0.7-1.2   c0.3-0.4,0.6-0.8,0.9-1.1c0.3-0.3,0.7-0.6,1.1-0.9c0.4-0.3,0.8-0.5,1.2-0.7c0.4-0.2,0.9-0.3,1.4-0.4c0.5-0.1,0.9-0.1,1.4-0.1   c0.5,0,0.9,0,1.4,0.1c0.5,0.1,0.9,0.2,1.4,0.4c0.4,0.2,0.9,0.4,1.2,0.7c0.4,0.3,0.8,0.6,1.1,0.9c0.3,0.3,0.6,0.7,0.9,1.1   c0.3,0.4,0.5,0.8,0.7,1.2c0.2,0.4,0.3,0.9,0.4,1.4C52.1,48,52.2,48.4,52.2,48.9z" class="st5_1582538447880" vector-effect="non-scaling-stroke"/>
	<path d="M42.6,37.8c-1.6,0-3.1,0.4-4.4,1.2c-2.1,1.2-3.5,3.1-4,5.3c-0.6,2.2-0.3,4.6,0.9,6.7c1.2,2.1,3.1,3.5,5.3,4   c4.7,1.2,9.5-1.6,10.7-6.3c1.2-4.7-1.6-9.5-6.3-10.7C44.1,37.9,43.4,37.8,42.6,37.8z M42.6,58.4c-0.9,0-2-0.1-2.9-0.4   c-3.1-0.8-5.6-2.7-7.2-5.4c-1.6-2.7-2.1-5.9-1.2-8.9c0.7-3.1,2.7-5.6,5.4-7.2s5.9-2.1,8.9-1.2c6.3,1.6,10.1,8.1,8.4,14.3   C52.7,54.9,47.9,58.4,42.6,58.4z" class="st4_1582538447880" vector-effect="non-scaling-stroke"/>
</g></g></svg>