<svg version="1.2" xmlns="http://www.w3.org/2000/svg" xmlns:xlink="http://www.w3.org/1999/xlink" overflow="visible" preserveAspectRatio="none" viewBox="0 0 87 87" xml:space="preserve" y="0px" x="0px" id="Livello_1_1582538446906" width="85" height="85"><g transform="translate(1, 1)"><style type="text/css">
	.st0_1582538446906{opacity:0.6;}
	.st1_1582538446906{font-family:'Roboto-Regular';}
	.st2_1582538446906{font-size:12px;}
	.st3_1582538446906{fill:#1B9DC1;}
	.st4_1582538446906{fill:#1A171B;}
</style><g>
	<text class="st0_1582538446906 st1_1582538446906 st2_1582538446906" transform="matrix(1 0 0 1 42.5822 47.3947)" vector-effect="non-scaling-stroke"> </text>
</g><rect height="8.8" width="12.1" class="st3_1582538446906" y="52.6" x="26.2" vector-effect="non-scaling-stroke"/><path d="M11.5,33.7c0.7,3,3.4,5.2,6.6,5.2s5.9-2.3,6.6-5.2H11.5z M18,42c-5.3,0-9.7-4.4-9.7-9.8c0-0.8,0.7-1.5,1.5-1.5  h16.4c0.8,0,1.5,0.7,1.5,1.5C27.7,37.6,23.4,42,18,42z" class="st4_1582538446906" vector-effect="non-scaling-stroke"/><path d="M27.9,33.7c0.7,3,3.4,5.2,6.6,5.2s5.9-2.3,6.6-5.2H27.9z M34.4,42c-5.3,0-9.7-4.4-9.7-9.8  c0-0.8,0.7-1.5,1.5-1.5h16.3c0.8,0,1.5,0.7,1.5,1.5C44.1,37.6,39.7,42,34.4,42z" class="st4_1582538446906" vector-effect="non-scaling-stroke"/><path d="M24.1,60.7h12.7V50.5H24.1V60.7z M38.4,63.6H22.7c-0.8,0-1.5-0.7-1.5-1.5V49c0-0.8,0.7-1.5,1.5-1.5h15.7  c0.8,0,1.5,0.7,1.5,1.5v13.1C39.8,63,39.1,63.6,38.4,63.6z" class="st4_1582538446906" vector-effect="non-scaling-stroke"/><path d="M13.5,76.7H6.6c-0.8,0-1.5-0.7-1.5-1.5s0.7-1.5,1.5-1.5h6.9c0.8,0,1.5,0.7,1.5,1.5S14.4,76.7,13.5,76.7z" class="st4_1582538446906" vector-effect="non-scaling-stroke"/><path d="M42.6,33.7c-0.8,0-1.5-0.7-1.5-1.5V10.6c0-0.8,0.7-1.5,1.5-1.5s1.5,0.7,1.5,1.5v21.7  C44.1,33.1,43.4,33.7,42.6,33.7z" class="st4_1582538446906" vector-effect="non-scaling-stroke"/><path d="M26.2,33.7c-0.1,0-0.2,0-0.2,0c-0.8-0.1-1.3-0.8-1.2-1.7l2.1-13.9c0.1-0.8,0.8-1.4,1.7-1.2  c0.8,0.1,1.3,0.8,1.2,1.7l-2.1,13.9C27.6,33.2,26.9,33.7,26.2,33.7z" class="st4_1582538446906" vector-effect="non-scaling-stroke"/><g>
	<rect height="18.1" width="10.4" class="st3_1582538446906" y="56.8" x="49.7" vector-effect="non-scaling-stroke"/>
	<path d="M10.3,30.4h61.2L64,11.7H17.8L10.3,30.4z M73.7,33.3H8.1c-0.5,0-0.9-0.3-1.2-0.7s-0.4-0.9-0.2-1.4l8.7-21.7   c0.2-0.6,0.7-0.9,1.4-0.9H65c0.6,0,1.1,0.4,1.4,0.9l8.7,21.7c0.2,0.5,0.1,0.9-0.2,1.4S74.2,33.3,73.7,33.3z" class="st4_1582538446906" vector-effect="non-scaling-stroke"/>
	<path d="M42.5,33.3c0.7,3,3.4,5.2,6.6,5.2s5.9-2.3,6.6-5.2H42.5z M49,41.6c-5.3,0-9.7-4.3-9.7-9.7   c0-0.8,0.7-1.5,1.5-1.5h16.4c0.8,0,1.5,0.7,1.5,1.5C58.7,37.2,54.4,41.6,49,41.6z" class="st4_1582538446906" vector-effect="non-scaling-stroke"/>
	<path d="M58.9,33.3c0.7,3,3.4,5.2,6.6,5.2s5.9-2.3,6.6-5.2H58.9z M65.4,41.6c-5.3,0-9.7-4.3-9.7-9.7   c0-0.8,0.7-1.5,1.5-1.5h16.4c0.8,0,1.5,0.7,1.5,1.5C75.1,37.2,70.8,41.6,65.4,41.6z" class="st4_1582538446906" vector-effect="non-scaling-stroke"/>
	<path d="M69.9,76.4H11.8c-0.8,0-1.5-0.7-1.5-1.5V38.7c0-0.8,0.7-1.5,1.5-1.5s1.5,0.7,1.5,1.5v34.7h55.1V38.7   c0-0.8,0.7-1.5,1.5-1.5s1.5,0.7,1.5,1.5v36.2C71.3,75.7,70.7,76.4,69.9,76.4z" class="st4_1582538446906" vector-effect="non-scaling-stroke"/>
	<path d="M46.5,73.4h12.1v-19H46.5V73.4z M60.1,76.4h-15c-0.8,0-1.5-0.7-1.5-1.5V52.9c0-0.8,0.7-1.5,1.5-1.5h15   c0.8,0,1.5,0.7,1.5,1.5v21.9C61.6,75.7,60.9,76.4,60.1,76.4z" class="st4_1582538446906" vector-effect="non-scaling-stroke"/>
	<path d="M76.9,76.4h-6.9c-0.8,0-1.5-0.7-1.5-1.5s0.7-1.5,1.5-1.5h7c0.8,0,1.5,0.7,1.5,1.5S77.7,76.4,76.9,76.4z" class="st4_1582538446906" vector-effect="non-scaling-stroke"/>
	<path d="M57.3,33.3c-0.8,0-1.3-0.6-1.4-1.2l-3.3-21.8c-0.1-0.8,0.5-1.6,1.2-1.7c0.8-0.1,1.6,0.5,1.7,1.2l3.2,21.8   c0.1,0.8-0.5,1.6-1.2,1.7C57.4,33.3,57.4,33.3,57.3,33.3z" class="st4_1582538446906" vector-effect="non-scaling-stroke"/>
</g><path d="M51.4,68.3c-0.8,0-1.5-0.7-1.5-1.5v-3.8c0-0.8,0.7-1.5,1.5-1.5s1.5,0.7,1.5,1.5v3.8  C52.9,67.6,52.2,68.3,51.4,68.3z" class="st4_1582538446906" vector-effect="non-scaling-stroke"/></g></svg>